<svg xmlns="http://www.w3.org/2000/svg" version="1.1" xmlns:xlink="http://www.w3.org/1999/xlink" xmlns:svgjs="http://svgjs.dev/svgjs" width="1920" height="1080" preserveAspectRatio="none" viewBox="0 0 1920 1080"><g mask="url(&quot;#SvgjsMask1027&quot;)" fill="none"><rect width="1920" height="1080" x="0" y="0" fill="rgba(46, 50, 54, 1)"></rect><path d="M1155.859,1059.182C1257.522,1063.758,1365.714,1035.306,1418.151,948.09C1471.856,858.764,1448.957,747.782,1397.614,657.078C1345.361,564.766,1261.894,487.628,1155.859,484.718C1045.325,481.684,940.07,544.569,889.973,643.146C843.67,734.258,876.468,840.068,931.506,926.186C981.684,1004.7,1062.774,1054.992,1155.859,1059.182" fill="rgba(108, 117, 125, 0.4)" class="triangle-float1"></path><path d="M259.948,1374.337C371.025,1384.16,491.389,1343.554,544.153,1245.318C595.053,1150.553,546.793,1039.658,488.145,949.483C435.88,869.121,355.796,810.034,259.948,808.332C161.131,806.577,63.583,853.812,17.264,941.119C-26.741,1024.064,5.351,1119.813,51.24,1201.73C98.529,1286.147,163.564,1365.814,259.948,1374.337" fill="rgba(108, 117, 125, 0.4)" class="triangle-float1"></path><path d="M763.936,984.457C802.669,983.417,835.19,957.367,853.414,923.173C870.536,891.048,870.736,851.827,850.889,821.31C832.579,793.155,797.501,784.439,763.936,785.589C732.663,786.66,704.47,801.163,686.724,826.935C665.767,857.371,649.464,895.032,665.728,928.213C683.524,964.519,723.518,985.542,763.936,984.457" fill="rgba(108, 117, 125, 0.4)" class="triangle-float2"></path><path d="M833.0838429265028 163.41824490725548L629.7210966662359 267.0367396059395 733.3395913649199 470.3994858662064 936.7023376251868 366.7809911675224z" fill="rgba(108, 117, 125, 0.4)" class="triangle-float2"></path><path d="M779.9345025333107-150.16673267250235L610.9618983288972-88.66573433565169 787.69969793638 134.0426728025431z" fill="rgba(108, 117, 125, 0.4)" class="triangle-float3"></path><path d="M1546.776,1448.689C1633.931,1450.216,1718.632,1415.321,1766.395,1342.403C1819.211,1261.77,1835.5,1160.02,1792.305,1073.849C1744.533,978.546,1653.382,904.254,1546.776,904.277C1440.203,904.3,1347.544,977.876,1301.433,1073.957C1260.652,1158.933,1288.467,1256.075,1340.096,1334.932C1386.264,1405.448,1462.504,1447.212,1546.776,1448.689" fill="rgba(108, 117, 125, 0.4)" class="triangle-float3"></path><path d="M469.48715800627724 650.3213233313393L222.3351084079867 501.8173898157801 73.8311748924275 748.9694394140706 320.98322449071804 897.4733729296298z" fill="rgba(108, 117, 125, 0.4)" class="triangle-float3"></path><path d="M1420.7641025827454 571.51444866415L1242.1245397738408 488.213452476897 1158.823543586588 666.8530152858016 1337.4631063954923 750.1540114730545z" fill="rgba(108, 117, 125, 0.4)" class="triangle-float2"></path><path d="M596.1157517239061 762.1785245952351L763.7673040743282 738.6166354887552 644.5986942393972 498.9202515163619z" fill="rgba(108, 117, 125, 0.4)" class="triangle-float1"></path></g><defs><mask id="SvgjsMask1027"><rect width="1920" height="1080" fill="#ffffff"></rect></mask><style>
                @keyframes float1 {
                    0%{transform: translate(0, 0)}
                    50%{transform: translate(-100px, 0)}
                    100%{transform: translate(0, 0)}
                }

                .triangle-float1 {
                    animation: float1 15s infinite;
                }

                @keyframes float2 {
                    0%{transform: translate(0, 0)}
                    50%{transform: translate(50px, -50px)}
                    100%{transform: translate(0, 0)}
                }

                .triangle-float2 {
                    animation: float2 14s infinite;
                }

                @keyframes float3 {
                    0%{transform: translate(0, 0)}
                    50%{transform: translate(0, -100px)}
                    100%{transform: translate(0, 0)}
                }

                .triangle-float3 {
                    animation: float3 16s infinite;
                }
            </style></defs></svg>